<svg version="1" xmlns="http://www.w3.org/2000/svg" width="1782.667" height="1782.667" viewBox="0 0 1337.000000 1337.000000"><path d="M621.5 64c-.4.6-1 .8-1.5.5-1.5-.9-11.4 1.7-15.1 4.1-2 1.2-4.7 3.5-5.9 5.1l-2.2 2.8 4.2.9c2.8.6 4.4.6 4.8-.1 1.2-1.9 8.6-5.2 13.4-6.2 6.3-1.1 18.3-.6 26.4 1.3 1.2.2 3.8.7 5.8 1 1.9.3 5.7 1.1 8.3 1.7 2.7.6 5.9 1.2 7.3 1.4 1.4.3 3.2.6 4 .8 2.2.6 11.2 2 14 2.3 1.4.1 2.5.3 2.5.4 0 .1 1.1.3 2.5.5 3.5.3 21.9 3.5 23.3 4 .7.3 2.3.7 3.7.9 1.4.3 4.3 1 6.5 1.6 2.2.6 5.1 1.3 6.5 1.6 1.4.2 4.1 1 6 1.6 1.9.7 3.7 1.3 4 1.3.3.1 1.4.5 2.5.9s3.4 1.2 5 1.8c9.8 3.3 24.8 12.1 27.7 16.3.4.5.8.6.8.1 0-1.9-5.3-7.8-10.3-11.4-5.4-3.9-17.8-10.3-22.9-11.7-.5-.2-1-.4-1.3-.5-.5-.3-.6-.3-5-1.5-1.6-.4-3.6-1.2-4.2-1.8-.7-.5-1.3-.7-1.3-.4 0 .3-2.3-.1-5.2-.9-6.5-2-8.8-2.6-11.3-2.9-1.1-.1-2.7-.5-3.5-.8-.8-.4-4.2-1.1-7.5-1.7-3.3-.6-6.9-1.2-8-1.4-4.4-.8-9.8-1.6-14.3-2.2-2.6-.3-6.5-.9-8.6-1.4-2.2-.5-4.3-.7-4.7-.4-.4.2-1 0-1.4-.6-.4-.6-1.1-.8-1.6-.5-.5.4-1.4.3-2.1-.1-.7-.4-2.1-.9-3.3-1.1-3.2-.4-6.8-1.1-9.5-1.7-6.6-1.5-14.6-2.7-19.8-3-3.2-.1-6.3-.5-6.9-.9-.6-.4-1.4-.3-1.8.3zM576 90.3c0 1.6 6.1 6.7 8 6.7 1.1 0 2.1.4 2.4.8.3.5 1.8.9 3.3 1 1.5.1 3.7.3 4.8.6 1.1.2 2.5.5 3 .6 2.3.5 3.5-.1 3.5-1.9 0-3-1.2-3.5-10-4.7-2.4-.3-6.8-1.3-9.7-2.3-2.9-1-5.3-1.4-5.3-.8z"/><path d="M624.4 92.5c.8 8.4-10.1 24.5-23.1 34.2-2.1 1.5-4.3 3.2-4.9 3.8-2.6 2.4-8.5 5-9.2 3.9-.8-1.1-12.9-9.1-18.2-12-1.9-1-4.1-2.3-4.9-2.8-.7-.6-2-1.1-2.8-1.2-.7-.1-2.1-.8-3-1.5-.8-.8-3.2-2-5.2-2.7-4.3-1.7-24.5-8.6-25.8-8.9-12.3-2.3-15.3-2.6-26.3-2.6-11.8-.1-17.5.6-27 3.2-2.5.7-5.1 1.8-5.7 2.3-.7.6-1.3.7-1.3.2 0-.5-.4-.4-.8.1-.7 1.1-6.4 3.8-7.1 3.5-.2-.1-.7.2-1 .7-.7 1.1-6.4 4.7-7.1 4.6-.3-.1-1 .3-1.6.8-1.9 1.5-10.8 5.9-12.1 5.9-.6 0-1.3.3-1.5.7-.4 1-9 5.3-10.5 5.3-.6 0-1.3.3-1.5.7-.3.7-6.1 3.7-8 4.2-.4.1-3.5 1.7-6.9 3.6-3.3 1.9-6.7 3.5-7.5 3.5-.8 0-1.4.4-1.4.8 0 .8-6 3.6-7.2 3.3-.5 0-.8.3-.8.9 0 .5-.9 1-1.9 1-1.1 0-2.1.3-2.3.7-.4 1-17.1 9.3-18.6 9.3-.7 0-1.2.4-1.2.8s-1.7 1.4-3.7 2.1c-2.1.8-4.9 2.2-6.3 3.1-1.4 1-2.9 1.8-3.3 1.8-1.3.1-78.2 38.7-78.5 39.4-.2.5-.8.8-1.4.8-.5 0-7 2.9-14.4 6.5s-13.7 6.5-14 6.4c-.4 0-1 .3-1.3.8-1 1.4-7.1 4.5-7.1 3.6 0-.4-.4-.4-.8.2-1.3 1.8-61.5 31.2-67.7 33.1-23 7-44.1 24.6-55.7 46.4-5.9 11-10.7 26.2-12.5 39-1 7.1-1 31.6 0 40.3 3.9 35.4 22.9 78.4 49.5 111.7 9.2 11.5 27.8 30.2 38.7 39 17.3 13.8 41.4 27.7 58 33.4 4.4 1.5 8.7 3 9.5 3.3.8.3 2 .7 2.7.9.6.1 2.7.7 4.5 1.2 1.8.6 5.8 1.5 8.8 2.1 3 .6 6.9 1.3 8.5 1.7 6.2 1.4 32.9 1.2 40.5-.2 22.5-4.2 41.3-14.3 55.7-29.9 4.3-4.7 8.1-8.5 8.5-8.5.4 0 6.5-4.3 13.5-9.5s13.9-10.3 15.2-11.3c1.3-.9 7.2-5.2 13-9.5s11.7-8.6 13-9.5c1.2-.9 3.5-2.6 4.9-3.7 1.5-1.1 9.8-7.3 18.7-13.7 8.8-6.5 16.9-12.5 18-13.4 1.1-.8 6.3-4.7 11.5-8.5s10.3-7.6 11.3-8.4c.9-.8 2.2-1.5 2.7-1.5.6 0 1-.3 1-.8 0-.4 1.7-1.8 3.8-3.2 2-1.4 3.9-2.7 4.2-3 .4-.5 5-3.8 15.5-11.4 3.9-2.8 21-15.6 22-16.4.6-.4 3.3-2.3 6-4.2 2.8-1.9 5.2-3.8 5.5-4.1.3-.3 6.8-5.1 14.5-10.8 7.7-5.6 15.1-11.1 16.5-12.1 10.5-8.3 19.6-14.2 24.3-15.8 3-1 6.6-2.6 8-3.5 1.5-.9 2.9-1.7 3.2-1.7.4 0 2.6-1.4 5.1-3 4.2-3 4.4-3 4.4-.9 0 6.7 1 29.8 1.3 31.9 5 29 13.5 44.6 30.5 55.7 5.3 3.4 16.9 8.3 19.8 8.3.9 0 12.7 5.4 26.2 12.1 13.6 6.6 26.7 13 29.2 14.2 2.5 1.2 4.7 2.5 4.8 2.9.2.5.9.8 1.5.8.7 0 8.8 3.8 18.2 8.4 9.3 4.7 29.6 14.6 45 22.1 138.6 67.8 143.3 70.2 148.8 74.9 10 8.5 20.9 14 35.6 18.1 7 1.9 10.3 2.3 20.5 2 15.1-.3 18.3-1 34.4-6.9 16.4-6.1 41.6-24.4 58.5-42.6 40.2-43.1 66.7-98.7 74.3-155.5 1.3-9.8.7-33.3-1-42.1-4.9-24.4-14-42.5-28.8-57.5-6.7-6.8-11.5-10.9-12.7-10.9-.5 0-1.1-.3-1.3-.8-.5-1.1-10.3-7.2-11.6-7.2-.7 0-1.2-.4-1.2-1 0-.5-.3-.9-.7-.8-.5.1-3.5-1.1-6.7-2.6-3.3-1.6-6.5-2.9-7-3.1-.6-.1-1.8-.5-2.6-.8-3.7-1.5-11.8-3.4-17.4-4.2-2.1-.3-4.2-.8-4.7-1.1-.5-.3-1.7-.7-2.6-.9-1-.2-4.9-1.3-8.8-2.5-3.8-1.2-8.1-2.3-9.5-2.6-1.4-.2-3.2-.7-4-1.1-.8-.3-1.8-.7-2.2-.8-.5-.2-1.1-.4-1.5-.5-.5-.1-1.2-.3-1.8-.4-.5-.1-2.8-.7-5-1.4-2.2-.6-4.2-1.1-4.5-1.1-.3 0-3.2-1-6.5-2.1s-6.2-2.1-6.5-2.1c-.3 0-2.3-.4-4.5-1s-4.4-1.2-5-1.3c-.5-.1-1.6-.5-2.2-.9-.7-.5-1.3-.6-1.3-.2 0 .3-.8.1-1.8-.4-1.1-.6-3-1.2-4.3-1.5-1.3-.3-8.7-2.3-16.4-4.6-15.4-4.5-15.9-4.6-23.5-6.5-.8-.2-1.6-.4-1.7-.5-.2-.2-.6-.3-1-.4-.5-.1-3.9-1.1-7.8-2.3-3.8-1.2-8.6-2.4-10.5-2.8-1.9-.4-4.1-1.2-4.7-1.7-.7-.6-1.3-.8-1.3-.4 0 .3-1.1.1-2.5-.4s-3.8-1.2-5.3-1.5c-3.2-.7-4.2-1-6.2-1.8-1.3-.6-8.2-2.5-15-4.2-1.4-.4-3.1-.9-3.8-1.1-.7-.2-1.4-.4-1.7-.4-.3 0-2.3-.7-4.5-1.5s-4.2-1.4-4.5-1.5c-.3 0-.6 0-.7-.1-.2 0-1.1-.2-2.1-.4s-2.6-.7-3.5-1.1c-2-.9-1.8-.8-6.7-1.8-2.2-.4-4.4-1.1-5-1.4-1-.7-1.4-.8-5-1.4-1.1-.2-2.5-.7-3.1-1-.6-.4-2.1-.9-3.5-1.2-1.3-.3-4-1-5.9-1.5-1.9-.5-4.6-1.3-6-1.6-1.4-.4-3.2-.9-4-1.2-.8-.3-2.4-.8-3.5-1-1.1-.2-2.7-.6-3.5-1-.8-.3-2.2-.7-3-.9-.8-.2-3.7-1-6.5-1.8-4.1-1.2-11.1-3.2-14.7-4.2-.5-.1-1.1-.3-1.5-.4-.5-.1-1.2-.2-1.7-.1-.4.1-1.3-.2-2-.7-.6-.6-2.7-1.3-4.6-1.7-5.7-1.2-12.3-3.6-15-5.5-1.4-.9-3.8-2.2-5.5-2.8-1.6-.6-5.4-1.9-8.2-3-2.9-1.1-5.3-1.8-5.3-1.6 0 .3-1.3-.2-3-1.1-1.6-.9-3-1.3-3-1 0 .3-1.3-.1-2.9-1-3.3-1.7-12.2-2.2-19.1-1.1-17.9 2.9-41.6 16.9-61.9 36.6-10.7 10.3-27 31.4-32.8 42.4-.9 1.7-1.2 1.3-1.8-2.5-1.1-6.5-7.8-26.5-11.9-35.4-3.6-7.8-4.3-10-2.8-9.1.5.3 2.4-.8 4.4-2.4 3-2.5 3.6-3.8 4.8-10.2 1.9-10.8 6.7-29.4 8.9-34.2 2.1-4.8 8.7-12 10.2-11.1.5.4.9.2.9-.3 0-.9 18-7.4 19.7-7.1.4.1 1 0 1.3-.1 1.9-.7 10-2 16.5-2.5 2.2-.2 4-.4 4-.5 0-.1 2-.3 4.5-.5 6.6-.5 18.7-1.4 25-2 9.5-.9 23.1-2.4 27-3 1.4-.3 4.1-.6 6-.9 4.6-.6 11.9-3.6 15.2-6.1 5.4-4.4 6.5-11.3 2.8-18.5-1.1-2.2-2.2-4-2.5-4-.2 0-.2 2.1.1 4.7.5 4 .2 5.4-1.8 8.2-2.3 3.5-9 7.6-13.8 8.5-1.4.3-3.6.7-5 1.1-1.4.3-4.3.7-6.5.9-2.2.3-6 .7-8.5 1-2.5.4-6.7.8-9.3 1.1-2.6.2-5.2.7-5.7 1-.5.3-1.1.1-1.5-.5-.4-.6-1.2-.7-1.8-.3-.7.4-2.1.8-3.2.9-1.1.1-5.8.4-10.5.8-4.7.3-10.5.9-13 1.2-2.5.2-6.6.6-9.1.8-2.5.2-5.4.6-6.5.9-1 .3-3.5.8-5.5 1.1-2 .3-4.9 1-6.5 1.6-1.6.6-3.1 1.1-3.4 1.1-1.1-.2-7.8 2.3-12.1 4.5-7.1 3.5-12.7 11.6-14.5 20.9-.1.5-1 3.9-1.9 7.5-1.9 7.1-2.3 9.2-3 13-.2 1.4-.6 3.4-.9 4.5-.2 1.1-.5 3-.5 4.2-.1 2.6-3.7 6.8-6.8 7.7-1.9.6-2.7 0-5-4-3.7-6.2-17-25-21.3-30-5.6-6.4-27.2-27.4-28.3-27.4-.5 0 2.1-2.3 5.9-5.2 8.7-6.5 13.5-11 18.4-17.3 9.4-12.3 11.1-19.8 6-26.5l-1.9-2.5.3 3zm-156.9 70.4c.6.3 1.2.6 1.5.7 2.8.5 22.1 9.8 27.1 13 2.4 1.5 4.6 2.6 4.8 2.5.2-.2.8.4 1.3 1.3s1.4 1.6 1.9 1.6c1.1 0 8.2 5.1 8.7 6.2.2.5.8.8 1.4.8.6 0 1.8.8 2.7 1.8.9.9 3.2 2.9 5.2 4.4 3.6 2.7 16.4 15.1 20.9 20.4 11.1 13 21.3 28.6 28.4 43.6 10.3 21.6 14.1 37.1 13.9 56.8 0 8.7-1.7 17-3.3 17-.5 0-2.1-1.1-3.6-2.3-2.7-2.3-2.7-2.5-1.4-7.3 1.8-7 2.1-22.8.5-31.1-2.8-14.8-11.3-35.8-20.7-51.1-4.4-7.2-13.9-20.3-17.2-23.8-14.8-15.5-24.2-23.7-35.6-31-2.5-1.6-4.7-3.1-5-3.4-.3-.3-1.9-1.2-3.5-2.1-1.7-.8-4.8-2.5-7-3.6-6.1-3.2-19.1-8.8-20.7-8.8-1.5 0-6.8-4.7-6.8-6 0-1.2.7-1.4 2.8-.9 1.5.4 3.2.9 3.7 1.3zm-117.7 37.4c.6.5 1.2.6 1.2.2 0-.4 1.1 0 2.5.9 1.3.9 3 1.6 3.6 1.6 1.6 0 31 14.8 33 16.6.8.8 2.1 1.4 2.7 1.4.7 0 1.2.4 1.2 1 0 .5.5 1 1.1 1 2.1 0 22.2 14.2 27.2 19.2 1 1 2.2 1.8 2.6 1.8 1.6 0 26.5 25.3 33.5 34 12.9 16.2 27.7 40.8 34.1 57 11 28 14.5 44.2 14.1 65.5-.3 16.6-2.3 25-6.2 26.5-4.7 1.8-6.9-.7-5.4-6.2 2-7.6 2.9-26.7 1.6-34.8-.3-1.4-.7-4.3-1-6.5-2-15.8-9-37.1-18.7-56.5-2.1-4.3-13.5-23.4-15.1-25.5-.5-.6-3.4-4.4-6.6-8.6-8.1-10.8-12.6-16-21.7-24.9-8.4-8.3-10.1-9.8-16.7-15.2-2.3-1.8-4.6-3.8-5.2-4.3-.6-.6-2.8-2.1-4.8-3.5-2.1-1.4-3.8-2.8-3.8-3.3 0-.4-.4-.7-1-.7-.5 0-3.2-1.6-5.9-3.5-2.6-1.9-5.3-3.5-5.9-3.5-.6 0-1.2-.3-1.4-.8-.8-1.9-25.9-15.1-33.8-17.7-2.4-.8-10.1-4.1-13-5.5-2.4-1.1-2.4-4.6 0-6.3 2.1-1.5 5.4-1.2 7.8.6zm477.1 37.8c-.6 1.2-2 2.4-3 2.6-1 .3-1.9.9-1.9 1.4 0 .5-.5.9-1.2.9-1.1 0-11.7 7.7-18.7 13.6-9 7.7-27.6 29.2-31.2 36.2-.8 1.5-1.9 3.3-2.6 4-2.5 2.6-14.3 28.1-17.3 37.1-10.6 32.5-11.3 63.7-1.9 82.3 1 2.1 1.9 4.4 1.9 5.1 0 1.3-6.7 5.4-7.5 4.5-.9-1.1-3.5-7-4.8-11.3-2.7-8.5-3.2-13.4-3.2-31.5.1-16.7.3-18.1 3.7-31.5 4-15.6 9.8-31.2 15.9-42.5 4.4-8.1 14.3-23.4 16.8-26 .9-.8 2.6-2.9 3.9-4.5 6.4-8.2 19.6-20.8 30.2-28.8 4.1-3.1 8-6.1 8.6-6.6.6-.5 2.6-1.7 4.5-2.6 1.9-1 3.6-2.1 3.9-2.5.5-.7 2.9-1.8 4.3-1.9.4-.1.3.9-.4 2zM952 250.6c-.8.8-4.3 3.3-7.9 5.5-10.3 6.3-10.4 6.3-12.5 8.1-1.1 1-2.3 1.8-2.7 1.8-.4 0-1.4.6-2.1 1.2-.7.7-3.1 2.6-5.3 4.3-2.2 1.6-4.5 3.4-5.1 4-.7.5-3.1 2.6-5.5 4.4-12 9.5-32.1 31.9-43.7 48.7-3.9 5.7-13.9 24.4-17.7 33.1-3.6 8.4-9.9 28.4-10.9 34.5-.3 2.1-1 5.7-1.5 8-2 9.2-3.1 34.4-1.7 40.4.2 1.2.7 3.8 1 5.8.8 5.2 4.4 15.6 6.7 19.2 2.3 3.8 1.7 5.8-2.2 7.4-3.9 1.7-5.1.5-8.3-8-6.6-17.8-7.8-43.3-3.1-66.9 2.6-13.5 9.5-32.8 16.9-47.6 7.9-16 15.9-28.3 27.8-43 7.5-9.2 24.8-26.5 33.1-33 2.1-1.7 4.5-3.6 5.3-4.4 3.9-3.5 18.5-13.6 31.9-21.9 5.6-3.4 9.7-4.3 7.5-1.6zm-737 20.9c7 .6 9.8 1 13.5 1.8 1.7.4 4.1.9 5.4 1.2 2.5.5 8.5 2.2 11.1 3.2.8.4 1.8.7 2.3.8.4.2.9.4 1.2.5.3.1.8.3 1.3.5 1.8.5 11.8 4.8 17.2 7.4 37.1 18 72.1 52 94.3 91.6 13.2 23.4 21.7 48.7 24.3 72 .9 8.2.9 24.9-.1 31-.4 2.7-.8 5.7-.9 6.5-1.9 14.6-10.8 32.9-21.4 44.2-5.7 6.1-21.2 18-21.2 16.3 0-.3-1 .1-2.3.9-3.2 2.2-15 5.6-23.7 7-7.6 1.3-24 1.3-29.5.1-1.6-.4-3.7-.7-4.5-.7-3.2 0-20.9-5-28.5-7.9-9.1-3.6-30-14.2-32.2-16.4-.8-.8-2-1.5-2.8-1.5-.7 0-1.5-.3-1.7-.8-.1-.4-3.6-3.1-7.6-6-28.8-20.8-53.2-50.1-70.2-84.2-7.6-15.1-13.6-32.5-16.3-47-7.6-40.1-.5-73.7 20.1-96.1 4.2-4.5 17.1-14.9 18.5-14.9.3 0 3.4-1.3 6.9-2.9 3.5-1.7 7.5-3.2 8.8-3.5 1.4-.3 4-.9 5.8-1.5 1.7-.5 3.2-.7 3.2-.5 0 .3.5.2 1.1-.2.7-.4 4.1-.9 7.8-1.1 3.6-.2 6.7-.5 6.8-.7.2-.1 2-.1 4 .1 2.1.2 6.3.5 9.3.8zm882 19.8c7.9 1.5 22.8 6.4 25 8.2.8.6 3.2 1.9 5.3 2.9 5.3 2.4 16.1 10.8 21.6 16.7 10.1 11 20 31.9 21.6 45.5.3 2.7.8 6.2 1.1 7.9 1 5.3.6 23.8-.6 32.5-2.7 19.7-9.6 44.2-17.5 61.5-19.4 43-44.1 76.6-72.5 98.9-4.7 3.7-9 7.1-9.6 7.5-.6.5-3 1.9-5.2 3s-4.3 2.5-4.7 3.1c-.3.5-1.5 1-2.6 1-1 0-1.9.4-1.9.8 0 .9-6.3 3.4-16 6.4-10.1 3.1-25.5 3.3-34.8.3-9.8-3.1-15.6-5.9-22.7-11-23.1-16.4-39-48.4-42.1-84.5-.5-6.8-.5-28.4.1-32.5.2-1.7.7-5.5 1-8.5 2.2-20.5 10.2-46.5 21.2-68.5 4.9-9.9 17.1-29.7 21.9-35.5 8.1-9.8 17.9-19.9 26-26.8 5.6-4.7 20.5-15.2 21.7-15.2.4 0 2.5-1.1 4.7-2.5s4-2.3 4-2.1c0 .2 2.1-.6 4.7-1.9 2.5-1.3 5-2.2 5.5-1.9.4.3.8 0 .8-.7s.3-.9.7-.6c.3.4 1.2.2 2-.4.7-.6 1.3-.9 1.3-.6 0 .3 2.1-.1 4.6-.9 2.6-.7 5-1.1 5.5-.8.5.3.9 0 .9-.6s.3-.9.8-.7c.4.3 2.5.2 4.7-.2 4.2-.8 19.3-.6 23.5.2zM853.8 641.5c-.2.1-3.9.6-8.2.9-4.3.4-8.2.8-8.5 1-.3.2-2.8.7-5.5 1-2.7.4-5.2.9-5.6 1.1-.4.2-1.9.6-3.4.9-3.1.6-13.4 3.4-15.6 4.3-.8.3-1.7.7-2 .8-3.9 1.3-22 9-25.4 10.7-21.2 10.8-48.1 31.7-62.8 49-2.4 2.7-5.8 6.6-7.6 8.6-5.8 6.5-27.7 40.2-34.5 53.2-7.7 14.8-16.9 36-22.5 52-3.5 10.2-7.1 21.6-7.3 23.7-.1.5-.5 1.9-1 3.2-.9 2.4-4.3 16.8-5.3 22.6-.3 1.6-1.2 6.8-2 11.5s-1.8 12.3-2.3 17c-1 10.1-1 38.8 0 48 1.4 13.2 1.9 16.9 3.1 22.1l1.3 5.4-4.6 6.5c-2.5 3.6-6.7 9.2-9.4 12.5-2.7 3.3-6.6 8-8.6 10.5-11.8 14.4-24 26.2-31.6 30.5-7 3.9-8.6 3.4-7.5-2.3 1.7-7.7 8.7-27.2 22-60.7 18.4-46.4 23.7-65.3 23.9-86 .1-11.8-1.1-18.1-5-26.1-8.2-16.5-27.7-22.2-48-14-8.4 3.4-16 8.2-23.4 14.7-3.5 3.1-6.7 5.8-7.2 6-3.1 1.4-25.7 31.4-33 43.9-6.1 10.4-14.4 27.5-16.8 34.8-1.5 4.5-2.9 8.1-3.1 8-.1-.2.1-2.3.6-4.8.4-2.5 1.1-6.8 1.5-9.5.9-6.5 1.1-7.2 4.6-29.5 1.1-6.9 2.2-13.6 2.5-15 1.6-8.6 1.6-16.2-.1-19.9-5.4-12-23.1-11.3-29.6 1.3-1.4 2.5-7.1 23.1-8.5 29.9-.2 1-.6 2.7-.9 3.7-.3 1-.7 2.7-.9 3.7-.2 1-1.2 4.7-2.1 8.3l-2 8c-.2.8-3.4 13.9-7.3 29.1l-6.9 27.7-12.9 19.3c-24.1 36.3-46 61.6-59.2 68.3-4.4 2.2-6.7.9-7.1-4.1-.7-7.8-.7-10 .5-19.8 2.3-18.8 8.2-41.4 20.1-77.5 7.3-22 10.3-30.2 20.5-56.3 5.5-14.3 5.9-18.7 2.6-26.7-8.2-19.4-34.5-18.7-44.9 1.2-2.2 4.4-15.8 47-17.4 54.7-.2.9-1.3 5-2.4 9.1-4.4 15.9-9.8 41.7-12.2 57.5-3.1 21.5-3.7 27.3-3.6 41.4.1 26.2 5.1 40.6 17.9 50.7 1.7 1.3 7.8 3.5 7.8 2.7 0-.3.6-.1 1.3.4.6.6 2.2.9 3.5.8 1.3-.1 2.5.2 2.7.6.3.4 3 .1 6-.6s5.5-1.1 5.5-.9c0 .2 2.6-1 5.8-2.7 10.3-5.6 18.7-13.4 28.3-26.4 3.2-4.4 6.3-8.5 6.9-9.2.5-.7 1-1.4 1-1.7 0-.3 1.4-2.5 3-5 1.7-2.5 5.1-8 7.5-12.3 2.5-4.3 4.5-7.4 4.5-7 0 .4-1.6 7.2-3.6 15-5 20.1-4.1 29 4.1 36.9 4.2 4.1 8.7 5.6 16.1 5.3 6-.2 10.5-2.3 16.1-7.2 3.9-3.6 9.3-12.5 9.3-15.4 0-5.9 12.4-40.9 22.7-63.9 18.4-41.2 37.1-72.1 54.3-89.6 5.7-5.7 19.6-16.1 20.5-15.3.5.6-7.4 35.9-12.5 55.9-3.7 14.6-10.3 44-11.4 50.5-4.6 29-3.8 43.4 3.1 55.2 1.4 2.4 2.8 4.3 3.2 4.3.3 0 1.7 1 3.1 2.3 5.4 5 18.9 6 27.5 2.1 2.2-1 4.2-1.8 4.5-1.9 2.5-.4 13.1-8.8 19.7-15.8 13.7-14.3 28.5-36.4 41.3-61.5l3.2-6.4 2.2 5.5c4.6 11.3 16.3 27.4 24.9 34.2 2.7 2.2 5.5 4.5 6.1 5 4.6 4.2 24.6 13.9 24.6 11.9 0-.4.6-.2 1.3.3 1 .9 7.2 2.5 10.2 2.8.6 0 1.5.3 2 .6 1.2.8 29.9.3 34-.5 1.7-.3 4.1-.8 5.5-1.1 1.4-.4 3.6-.8 5-1 1.4-.2 6.2-1.4 10.8-2.8 4.5-1.4 8.2-2.2 8.2-2 0 .3.7-.1 1.7-.8.9-.8 1.9-1.3 2.2-1.2.7.3 13.2-3.7 14.6-4.7.6-.3 3.3-1.5 6-2.5 11.4-4.2 40.2-20.2 52-29 14.8-10.9 31-26.7 43.6-42.5l8.4-10.5V973c.1 23.2 3.8 36.6 12.9 46.7 6.2 6.8 11.8 9.4 20.9 9.4 4 0 8.6-.5 10.2-1.2 1.7-.7 3.6-1.3 4.4-1.5.8-.1 1.7-.8 2.1-1.4.4-.7.9-1 1.1-.9.9.7 9.7-6.2 13.3-10.3 7.5-8.5 17.9-26.4 24-41.1 1.6-3.8 2.2-4.6 2.3-2.5.2 7.1 2 16.5 4.5 23.6 6.9 19.6 18 29 35.3 29.7 7.3.3 13.3-.7 19.8-3.3 1.6-.7 3.2-1.2 3.6-1.2.5 0 1.4-.7 2.1-1.5.7-.8 1.6-1.3 2-1 .9.6 12.5-11.4 17.9-18.8 2.4-3.1 4.4-5.7 4.5-5.7.1 0 .2 1.5.1 3.2-.2 7.3 4.9 16.8 11.3 21.1 9.1 6.1 21.4 4.7 29.3-3.4 3.1-3.2 6.9-10.7 6.9-13.8 0-2 5.7-19.8 9.5-29.6 17.2-44.7 42.1-87.8 61.7-106.8 5.1-4.9 19.7-14.7 21.9-14.7.4 0 .5.8.3 1.7-2.5 12-8.8 38.8-13.9 59.3-3.5 14-6.5 26.8-6.8 28.5-.3 1.6-1.2 6.6-2 11-5 27.3-4 44.6 3.1 55.9 2.3 3.7 7 9 8.2 9.2.3 0 2.3.9 4.5 1.9 5.3 2.4 13 3 18.6 1.4 2.4-.7 4.6-1.3 4.9-1.4 9.8-2.6 25.1-16.4 37.6-34 3.5-5 6.8-9.5 7.3-10.1 1.5-1.8 12.7-20.6 16-26.9 1.7-3.3 5.2-9.4 7.7-13.5 2.6-4.1 7.1-12.4 10.1-18.3 7.2-14.4 7.8-19.1 2.6-20.1-2.7-.6-9.2 7.5-21.6 26.8-4.6 7.3-19.4 24.3-31.7 36.6-14.4 14.4-21.4 19.5-28.2 20.7-2.5.4-2.8.1-2.8-2.5 0-4.2 10.3-33 18.5-51.7 10-22.9 22.9-59.7 24-68.7.3-2.2.8-4.4 1.1-5 .3-.5.7-5.8.9-11.9.5-18.1-3.3-30.1-12.5-39.6-7.2-7.4-12.8-10-23.5-10.9-5.3-.5-8-.1-17.5 2-3.5.8-16.1 7.1-18.5 9.3-1.1 1-4.5 3.7-7.6 6-5 3.7-14.2 13.4-17.9 18.9-.8 1.2-4.3 5.9-7.7 10.4-7.6 10-19.3 31-22.9 41-2.9 8.2-4 10.1-3 5.5.6-3.1.7-4 2.6-16 .6-3.9 1.3-8.4 1.6-10 .3-1.7.7-4.1.9-5.5.2-1.4.6-3.9.9-5.5 3.9-22.2 4.6-29.2 3.6-33.6-1.7-6.9-7.2-12-14.3-13.3-4.7-.8-13.2 3.7-15.7 8.4-.6 1.2-16.9 63.6-18.5 71-.2.8-2.4 9.7-4.9 19.6-4.5 17.8-5.4 20.8-7.9 24.9-1.5 2.5-11.7 20.7-13.6 24.3-.8 1.5-1.7 2.9-2 3.2-.4.3-2.8 4-5.5 8.2-2.6 4.3-5.3 8.4-5.9 9-.7.7-3.7 4.4-6.6 8.3-3 3.8-6.4 7.9-7.5 9.1-10.7 10.6-21.6 10.6-23.1.1-1.3-8.8-1.2-13.2 1-28.2 1.3-8.9 7.2-31.7 11.5-44 5.3-15.3 5.7-17 5.3-22.5-.8-12.8-10.7-22.5-22.7-22.2-6.6.2-8.3.5-9.8 2-.7.7-1.6 1.2-2.1 1.2-2.2 0-9.4 7.1-11.9 11.6-2.1 4-5.2 14.8-7.4 25.8-1.1 5.6-9.4 28.4-14.1 38.6-1.4 3-3.9 8.4-5.5 12-3.4 7.6-10.7 20.2-15.9 27.8-13.2 18.8-25 24-29.5 12.8-2.1-5.2-2.3-7.2-2.4-17.6-.1-11.7 2.2-25.9 7-43.4 5.1-18.6 7.5-24.8 17.2-44.5 14.2-28.9 32.4-47.5 44.9-45.7 4.7.7 6.8 1.8 11.9 6.6 9.3 8.7 16.4 11.6 24 9.5 7.2-1.9 9.3-3 13.2-7 7.7-7.8 10.5-18.7 7.3-28.7-2.1-6.7-7.6-12.7-18.9-20.4-10.7-7.3-30.6-10.9-43.9-8-6.7 1.5-20.8 8.3-26.1 12.6-22.1 18-38.4 43.7-51.6 81.5-2.8 8.2-8.3 28.3-9.4 34.7-.5 3.2-1.3 4.6-7 13.4-12.6 19.2-25.5 34.6-37 43.9-2.1 1.6-4.9 4-6.4 5.3-11.6 9.8-45.4 28.2-54.3 29.6-.8.1-1.9.5-2.5.8-.6.4-2.1.9-3.5 1.2-1.3.3-5.3 1.2-8.8 2.1-3.5.8-6.6 1.3-6.9 1.1-.2-.3-1.2-.1-2.2.4-4.1 2.2-33.2 3.3-42.5 1.5-3.3-.6-6.6-1.4-7.3-1.9-.6-.4-2.2-.9-3.4-1.1-4.5-.9-12.7-5.9-18-10.9-14.3-13.5-22.3-32.1-27.2-63.1-2.8-17.2-1.8-55.2 1.8-74.1.2-1.2.7-4.5 1.1-7.5.4-3 1.1-7.4 1.7-9.9.5-2.5 1.1-5.3 1.3-6.2 3.4-16.7 13.1-47.6 20.2-64.8 10.9-26.5 30.5-59 48.8-80.9 10.3-12.4 16.4-18.3 31-29.9 2.9-2.2 14.5-9.1 14.5-8.6 0 .4.8 0 1.8-.8 2.2-1.9 15.9-7.2 23.2-8.8 3-.7 6.9-1.6 8.7-2 1.8-.5 7.8-.7 13.5-.6 17.8.5 30.1 6.9 39.6 20.8 3.9 5.7 5 8.5 6.5 16.8 3.7 19.9-4 39.8-22.8 58.5-5.9 5.9-21.4 17.5-23.3 17.5-.6 0-1.2.4-1.4.9-.4 1.1-20.8 12.2-22.3 12.1-1.2-.1-10.2 5-12.2 6.9-6.5 6.1-10.2 14.8-9.7 22.7.2 4.8 3.6 13.1 6.2 15.1 3.4 2.8 9.8 5.3 13.7 5.3 5.7 0 15.5-3.9 30-11.9 49.9-27.7 79.3-71 78.8-115.7-.2-10.4-2.3-18.6-7.3-28.3-11.5-22.2-31.3-32.8-62.2-33.6-7-.1-12.8-.2-13 0zM363.7 706.6c-.1.1-4.4.5-9.5.8-22.6 1.5-40.8 12.5-56.5 34.3-2.9 4-5.7 7.4-6.3 7.7-1.6.6-34.4-8-41.6-10.9-6.3-2.6-22.5-8.2-26.3-9.1-1.1-.3-3.1-.7-4.4-1-1.3-.3-3.2-.9-4.3-1.5-1-.5-1.8-.8-1.8-.5 0 .2-2.9-.4-6.5-1.4-3.6-1-6.8-1.9-7-1.9-.3 0-2.9-.4-5.8-1-14.1-2.8-23.3-3.6-40.7-3.6-22.1 0-33.8 1.7-51.3 7.5-10 3.4-11.5 4-22.7 9.6-30.2 15.1-55.6 39.9-69 67.6-3.5 7.2-4.2 9.6-4.1 14.6.1 18 15.1 29.9 31.3 24.6 2.8-.9 6.4-3.2 8.8-5.7 4.6-4.5 10-11.9 10-13.6 0-.6.3-1.1.8-1.1.4 0 1.3-1.2 2-2.8 4.8-10.5 31.2-41.4 42.1-49.2 1.9-1.4 4.6-3.4 6-4.5 11.2-8.9 30.3-17.7 46.6-21.6 16-3.8 19.5-4.2 34.5-4.4 12.7-.1 21.3.7 33 3 7.8 1.6 19 4.4 23.8 6.1 2.4.8 10.7 3 18.5 4.9 7.8 1.9 15.9 4 17.9 4.6l3.8 1-3 5.2c-6.8 11.5-15.1 30.2-19.9 44.7-9.8 29.2-17.3 55.2-27.1 93.5-11.1 43.6-15.4 59.5-22 82.5-8.2 28.1-22 60.6-33 77.3-5.9 8.8-15.3 18.9-22.2 23.5-2.6 1.8-5 3.2-5.3 3.2-.4 0-1.9.9-3.4 2-1.5 1-3.9 2.1-5.2 2.4-1.3.3-4.9 1.2-7.9 2-3.9 1.1-8.8 1.4-17 1.2-12.8-.4-15.5-.8-22-2.7-5.6-1.6-5.1-1.4-7.5-2.3-8.9-3.5-10.5-4.2-10.5-4.9 0-.4-.6-.7-1.3-.7-1.6 0-10.3-5.9-14.2-9.7-7.7-7.4-13.4-16.3-15.4-24-1.4-5.1-1.7-15.2-.7-21.3 1.2-7 7.8-19.8 14.3-27.5 10.2-12.1 23-21.1 37.3-26 15.7-5.5 19.5-8.1 24.3-17 1.7-3.2 2.1-5.7 2.1-12.5 0-9.4-1.1-12.6-6.5-17.9-5.5-5.5-8.5-6.6-18.9-6.7-5.2 0-10 .3-10.5.7-.6.4-2.2 1-3.6 1.2-4.9.9-17.8 6.8-23.6 10.8-18.2 12.6-33.5 37.7-37.2 60.9-.5 3.6-.8 13.2-.6 21.5.2 12.2.8 16.7 2.8 24 5.6 20 13.7 34.5 26.1 46.7 6.6 6.5 20.6 17.5 20.6 16.2 0-.3 1.2.4 2.8 1.4 4.9 3.6 29.1 14.2 32.2 14.2.9 0 2 .3 2.4.7.3.4 1.2.8 1.9.9.7.1 2.6.5 4.2.8 17.2 3.5 37.5 2.3 51.5-3.1.8-.4 1.8-.5 2.3-.5.4.1.7-.3.7-.9 0-.5.5-.7 1-.4.5.3 1 .1 1-.5s.5-.8 1-.5c.5.3 1 .1 1-.5s.4-.9.9-.6c1.4.9 21-12.6 27.6-19 23.9-23.4 39.5-49.9 57.3-98 12.1-32.7 22.4-70.4 41.6-152.4 5.7-24.2 15.5-61.5 19.3-73.4l2.9-9 13.4-.1c18.4-.2 29.8-1.7 37.6-5 1.9-.8 3.4-1.2 3.4-1 0 .2 3.1-1.2 6.9-3.1 26.3-13.4 24.9-40.1-2.6-46.5-4.3-1-20.1-2.8-20.6-2.3zm20.6 25.6c3.7 1.4 3.4 3-1 6.4-5.6 4.3-14.4 8.4-21.5 10-8.5 2-16.4 3.3-23.2 3.9l-7.9.7 1.9-3.2c6.9-11.8 14.4-16.2 31.4-18.6 2.5-.3 4.6-.7 4.7-.8.7-.6 13.3.7 15.6 1.6zM411.3 756.9c-9.2 3.1-15.8 9.2-20.6 19.1-4 8.1-4.9 19.8-2.2 27.9 5.3 16.1 23.6 23.2 39.7 15.3 17.2-8.5 25.4-27.9 19.3-46.2-1.9-5.9-8.1-12.6-14-15.5-5.5-2.6-15.6-2.9-22.2-.6zM1246 1093.4c-.5.5-7.3 1.4-15 2.1-2.5.3-5.6.7-7 1-1.4.3-4.7.8-7.5 1-2.7.2-5 .5-5 .5 0 .3-3.2.8-8.7 1.4-3.1.4-6.6.9-7.9 1.1-1.3.3-4.6.7-7.4 1-2.7.3-6.1.8-7.5 1-1.4.2-4.7.6-7.5.9-5.9.7-9.9 1.3-14 1.9-1.6.3-5.5.8-8.5 1.2-3 .4-6.6.8-8 1-1.4.2-5 .6-8 1-3 .3-6.6.8-8 1.1-3.1.6-10.2 1.4-15.5 1.9-2.2.2-4 .4-4 .5 0 .1-1.1.3-2.5.5-8.2 1-11.1 1.4-16.5 2-3.3.5-7.1.9-8.5 1-1.4.2-2.5.4-2.5.5 0 .1-1.3.3-3 .5-1.6.1-5.5.6-8.5 1s-6.8.8-8.5 1c-3.3.4-9.1 1.2-15.7 2.1-2.4.3-5.6.7-7.3.9-1.6.1-5 .5-7.5.9-6.6.9-12.1 1.6-24 3.1-3 .3-7.3.9-9.5 1.1-2.2.3-5.6.7-7.5.9-1.9.2-4.6.6-6 .9-1.4.2-5.4.7-9 1.1-3.6.3-7.4.8-8.5 1-1.8.4-5.7.9-17.5 2.1-1.9.2-5.1.5-7 .8-1.9.3-5.7.8-8.5 1.1-4.7.5-7.6.9-16.5 2-1.9.2-5.7.7-8.5 1-2.7.2-6.1.7-7.5.9-1.4.3-5.2.7-8.5 1.1-3.3.3-7.8.8-10 1.1-2.2.2-5.8.7-8 .9-2.2.2-4 .5-4 .5 0 .3-4.6.8-11.5 1.4-3.6.3-6.5.6-6.5.6 0 .3-12.9 1.8-21 2.5-2.2.2-4 .4-4 .5 0 .2-1.7.4-22 2.6-1.6.1-3 .4-3 .5 0 .1-1.3.3-3 .4-4.9.4-14.8 1.5-18 1.9-1.6.2-5.5.7-8.5 1-3 .3-7.7.9-10.5 1.2-4.8.6-9.2 1.1-16.5 1.8-1.9.2-6.2.7-9.5 1.1-3.3.4-7.6.8-9.5 1-1.9.2-5.7.7-8.5 1-2.7.3-6.8.8-9 1-2.2.2-6 .7-8.5 1-4.8.5-10.1 1.1-19 2.1-3 .3-6.8.7-8.5.9-1.6.2-5.7.6-9 .9-3.3.3-8 .8-10.5 1.1-2.5.4-6.3.8-8.5 1-2.2.2-6.2.6-9 1-2.7.3-7.2.8-10 1-4.7.4-9.7 1-19 2-2.2.2-6.2.7-9 1-10.7 1-16.2 1.6-20 2.1-7.9.8-15.1 1.6-19.5 1.9-2.5.2-4.5.4-4.5.5 0 .1-2 .3-4.5.5-5 .4-13.1 1.2-20 2-2.5.3-7 .7-10 1-6.3.6-12.2 1.2-20 2.1-3 .3-7.7.7-10.5.9-2.7.2-5 .4-5 .5 0 .1-1.8.3-4 .5-5.6.4-17.2 1.5-22 2.1-2.2.2-6.7.7-10 1-3.3.3-7.8.7-10 .9-2.2.2-6.5.6-9.5.9-3 .2-8.6.8-12.5 1.2-8.6.8-12.1 1.1-20.5 1.8-3.6.3-8.7.8-11.5 1.1-2.7.3-7.7.8-11 1-3.3.3-8.5.7-11.5 1-3 .4-7.7.8-10.5.9-2.7.2-5 .5-5 .6 0 .1-2.2.3-5 .5-2.7.1-8.4.6-12.5 1s-9.7.9-12.5 1.1c-2.7.3-7 .6-9.5.9-4.4.4-13.8 1.2-23.5 1.9-12.3 1-22.3 1.8-26.5 2.1-2.5.2-7.4.6-11 .9-3.6.2-9.6.7-13.5 1-3.8.4-10.1.9-14 1.2-3.8.3-8.8.7-11 .9-5.6.3-17.9 1.4-25 2.1-3.2.3-8.2.8-11 1-2.7.2-7.9.6-11.5 1-3.6.4-8 .7-9.7.8-1.8 0-3.3.3-3.3.6s-1.2.6-2.8.7c-2.5.3-6.1.9-7.2 1.3-.3.1-.8.2-1.1.2-.4-.1-2.2.3-4 .9-1.9.6-4.1 1.2-4.9 1.3-5.1 1.2-17 5.2-19.5 6.6-4.3 2.4-4.5 4.7-.3 4.3 1.8-.2 6.7-.6 10.8-.8 16.6-1 20.8-1.3 28-1.9 4.1-.4 11.1-.9 15.5-1.2 8.8-.5 15-1 27-1.9 4.4-.3 10.7-.7 14-.9 3.3-.2 6-.4 6-.5 0-.1 3.6-.4 8-.7 4.4-.2 10.5-.6 13.5-.8 7-.6 22.2-1.7 28-2.1 2.5-.2 4.5-.4 4.5-.5 0-.1 2.7-.3 6-.5s9.6-.7 14-1c14.9-1.2 18-1.4 24-1.9 3.3-.2 9.6-.7 14-1.1 4.4-.3 10.5-.8 13.5-1 3-.3 8.2-.7 11.5-1 5.5-.4 11.8-.9 26-2 2.8-.2 5-.4 5-.5 0-.1 2.9-.4 6.5-.5 3.6-.2 8.5-.6 11-.9 2.5-.3 7.7-.8 11.5-1 3.9-.3 9.7-.8 13-1.1 5.7-.6 10.5-1 22-1.9 4.7-.4 17.3-1.5 24-2.1 1.7-.2 6.4-.6 10.5-.9 8.5-.7 16.7-1.4 34.5-3.1 5.7-.5 14.2-1.2 23-2 2.2-.2 7.2-.6 11-1 3.9-.4 8.8-.8 11-1 2.2-.2 6.5-.6 9.5-.9 3-.3 8.4-.8 12-1.1 3.6-.3 8.1-.7 10-1 1.9-.2 7.1-.7 11.5-1.1 4.4-.3 9.4-.8 11-.9 1.7-.2 6.2-.6 10-1 7.8-.7 14.6-1.3 22-2.1 2.8-.3 7.4-.7 10.2-.7 2.9-.1 5.3-.4 5.3-.7 0-.3 1.7-.6 3.8-.7 6.6-.3 16.6-1.2 20.7-1.7 4-.5 13.5-1.5 21-2.1 2.2-.2 4-.4 4-.5 0-.1 2.7-.3 6-.5 3.3-.3 7.8-.7 10-1 2.2-.2 6.3-.7 9-1 2.8-.2 7.3-.7 10-1 2.8-.2 7.5-.7 10.5-.9 3-.3 7.5-.8 10-1.1 2.5-.3 7.2-.8 10.5-1.1 6.2-.5 7.8-.7 18-1.8 5.5-.6 10.3-1.1 21-2.1 2.2-.2 5.8-.6 8-.9 2.2-.3 6.7-.8 10-1.1 13.1-1.3 24.1-2.4 29.5-3 1.9-.3 5.8-.7 8.5-1 2.8-.2 7.5-.7 10.5-1.1 3-.3 7.3-.7 9.5-.9 6.3-.7 14.6-1.5 19-2.1 2.2-.2 5.8-.6 8-.8 2.2-.2 6.3-.7 9-1 2.8-.4 7.3-.8 10-1.1 2.8-.3 7-.7 9.5-1 7.3-.9 14.3-1.6 18-2 1.9-.2 3.5-.4 3.5-.5 0-.1 2-.3 4.5-.5s6.3-.6 8.5-.9c2.2-.2 6.7-.7 10-1.1 3.3-.3 7.8-.8 10-1.1 2.2-.3 5.8-.7 8-1 2.2-.2 6-.6 8.5-.9 6.9-.7 15.1-1.6 19-2 1.9-.2 3.5-.4 3.5-.5 0-.1 2-.3 4.5-.5s6.3-.7 8.5-.9c2.2-.3 6.5-.8 9.5-1.1 3-.3 6.9-.8 8.5-1 1.7-.3 5.5-.7 8.5-1 3-.2 7.1-.7 9-.9 5.9-.7 13.3-1.6 18-2.1 5-.5 10.1-1.1 17-1.9 2.5-.3 7.2-.8 10.5-1.2 3.3-.3 7.4-.8 9-1 1.7-.3 5-.6 7.5-.9 2.5-.2 6.8-.7 9.5-1 2.8-.3 7.3-.8 10-1 2.8-.3 7-.7 9.5-1 2.5-.2 7-.7 10-1.1 3-.3 7.3-.7 9.5-.9 2.2-.2 4-.4 4-.5 0-.2 4.7-.7 11.7-1.2 2.7-.2 4.8-.5 4.8-.8 0-.3 1.7-.5 3.8-.6 2 0 6.6-.4 10.2-.8 3.6-.4 8.1-.9 10-1.1 1.9-.2 3.5-.5 3.5-.6 0-.1 1.4-.3 3-.4 1.7-.2 3-.4 3-.5 0 0 1.6-.3 3.5-.5s4.9-.6 6.5-.9c1.7-.2 5-.7 7.5-1.1 2.5-.4 5.3-.9 6.3-1.1 6.7-2 1.6-14-8.7-20.3-3-1.9-11.6-3.7-12.6-2.7z"/></svg>